<svg width="202" height="61" viewBox="0 0 202 61" fill="none" xmlns="http://www.w3.org/2000/svg">
<path d="M6.192 18.68C7.088 18.04 8.24 17.464 9.648 16.952C11.056 16.3973 12.4 16.1413 13.68 16.184C15.0453 16.2693 16.112 16.7173 16.88 17.528C17.6907 18.3387 17.8613 19.4267 17.392 20.792C17.0507 21.688 16.5387 22.904 15.856 24.44C15.216 25.9333 14.7253 27.4693 14.384 29.048C16.2187 28.28 17.6907 27.5547 18.8 26.872C19.9093 26.1467 21.0187 25.464 22.128 24.824C22.64 24.4827 23.152 24.44 23.664 24.696C24.176 24.9093 24.4747 25.144 24.56 25.4C24.6453 25.6133 24.5813 26.04 24.368 26.68C24.1973 27.2773 23.8133 27.8533 23.216 28.408C22.704 28.92 22 29.4533 21.104 30.008C20.208 30.52 19.2693 31.032 18.288 31.544C17.3067 32.056 16.3253 32.5253 15.344 32.952C14.3627 33.336 13.488 33.6347 12.72 33.848C12.08 34.0613 11.44 33.9973 10.8 33.656C10.2027 33.3147 9.79733 32.824 9.584 32.184C9.37067 31.5867 9.392 30.776 9.648 29.752C9.904 28.728 10.224 27.6827 10.608 26.616C11.0347 25.5067 11.4613 24.4827 11.888 23.544C12.3573 22.5627 12.6987 21.8587 12.912 21.432C12.9973 21.2187 13.04 21.0053 13.04 20.792C13.04 20.5787 12.8693 20.472 12.528 20.472C11.8027 20.5573 10.9707 20.8133 10.032 21.24C9.09333 21.624 8.15467 22.1147 7.216 22.712C6.91733 22.9253 6.64 23.0107 6.384 22.968C6.17067 22.9253 5.95733 22.84 5.744 22.712C5.91467 24.0773 6.08533 25.3787 6.256 26.616C6.46933 27.8533 6.72533 29.1547 7.024 30.52C7.23733 31.4587 7.23733 32.1413 7.024 32.568C6.81067 32.9947 6.42667 33.3147 5.872 33.528C5.27467 33.7413 4.76267 33.72 4.336 33.464C3.90933 33.1653 3.632 32.824 3.504 32.44C2.77867 30.3067 2.16 27.9813 1.648 25.464C1.17867 22.9467 0.837334 20.536 0.624 18.232C0.538667 17.5067 0.581333 16.9093 0.752 16.44C0.965333 15.928 1.24267 15.5867 1.584 15.416C1.968 15.2453 2.352 15.224 2.736 15.352C3.16267 15.48 3.54667 15.6933 3.888 15.992C4.272 16.248 4.592 16.568 4.848 16.952C5.104 17.2933 5.232 17.6133 5.232 17.912C5.27467 18.168 5.296 18.424 5.296 18.68C5.296 18.936 5.31733 19.192 5.36 19.448C5.57333 19.1493 5.85067 18.8933 6.192 18.68ZM38.384 47.8C38.8107 48.5253 39.0453 49.2293 39.088 49.912C39.1733 50.5947 39.0027 51.0853 38.576 51.384C38.3627 51.512 38.1707 51.6187 38 51.704C37.8293 51.832 37.616 51.8747 37.36 51.832C37.1467 51.7893 36.8907 51.6613 36.592 51.448C36.2933 51.2347 35.952 50.8933 35.568 50.424C34.3733 48.9307 33.0507 47.2667 31.6 45.432C30.1493 43.5973 28.592 41.72 26.928 39.8C26.0747 41.1227 25.2427 42.4453 24.432 43.768C23.664 45.048 22.9813 46.328 22.384 47.608C22.2987 48.12 22.1493 48.5893 21.936 49.016C21.7227 49.4427 21.3813 49.7413 20.912 49.912C20.6987 49.9973 20.4427 50.0187 20.144 49.976C19.8453 49.8907 19.5893 49.7413 19.376 49.528C18.9493 48.9733 18.7147 48.376 18.672 47.736C18.6293 47.096 18.7147 46.4773 18.928 45.88C19.184 44.984 19.5893 43.9813 20.144 42.872C20.6987 41.72 21.3173 40.5467 22 39.352C22.7253 38.1573 23.4507 37.0267 24.176 35.96C24.944 34.8507 25.648 33.8907 26.288 33.08C27.0133 32.2267 27.7387 32.0347 28.464 32.504C28.5493 32.5893 28.6773 32.7387 28.848 32.952C29.0613 33.1227 29.232 33.3787 29.36 33.72C29.5307 34.0187 29.616 34.3813 29.616 34.808C29.6587 35.2347 29.5733 35.704 29.36 36.216C29.2747 36.3867 29.168 36.536 29.04 36.664C28.9547 36.7493 28.8693 36.8773 28.784 37.048C31.6853 38.1573 34.8853 41.7413 38.384 47.8ZM33.584 27.256C33.6267 27.5973 33.5627 27.896 33.392 28.152C33.264 28.408 33.072 28.6427 32.816 28.856C32.6027 29.0267 32.368 29.176 32.112 29.304C31.856 29.3893 31.6427 29.4107 31.472 29.368C31.088 29.2827 30.7467 29.112 30.448 28.856C30.192 28.5573 29.9573 28.2373 29.744 27.896C29.5733 27.512 29.424 27.128 29.296 26.744C29.2107 26.36 29.1467 26.0187 29.104 25.72C28.9333 24.6533 28.8053 23.4587 28.72 22.136C28.6347 20.8133 28.592 19.448 28.592 18.04C28.592 16.5893 28.6133 15.1173 28.656 13.624C28.7413 12.1307 28.848 10.68 28.976 9.272C29.1467 8.80266 29.488 8.46133 30 8.248C30.5547 7.992 31.0667 7.94933 31.536 8.12C31.9627 8.29067 32.368 8.568 32.752 8.952C33.136 9.336 33.328 9.72 33.328 10.104C33.2853 11.2133 33.2427 12.4293 33.2 13.752C33.1573 15.0747 33.1573 16.4827 33.2 17.976C34.736 17.592 36.4427 17.2933 38.32 17.08C40.1973 16.824 42.1813 16.8453 44.272 17.144C44.784 17.2293 45.168 17.4 45.424 17.656C45.7227 17.912 45.8933 18.168 45.936 18.424C45.9787 18.6373 45.7867 19.0427 45.36 19.64C44.9333 20.1947 44.3573 20.5147 43.632 20.6C42.6933 20.728 41.84 20.856 41.072 20.984C40.3467 21.0693 39.6 21.176 38.832 21.304C38.064 21.3893 37.232 21.496 36.336 21.624C35.4827 21.752 34.4587 21.9013 33.264 22.072C33.3067 22.9253 33.3493 23.8 33.392 24.696C33.4347 25.5493 33.4987 26.4027 33.584 27.256ZM49.3205 20.856C50.3445 18.4667 51.3685 16.248 52.3925 14.2C53.4592 12.152 54.4192 9.86933 55.2725 7.352C54.4192 7.56533 53.5018 7.90666 52.5205 8.376C51.5818 8.80267 50.6858 9.22933 49.8325 9.656C49.1498 9.95466 48.5738 9.95466 48.1045 9.656C47.6352 9.35733 47.2938 8.99466 47.0805 8.568C46.6965 7.71466 46.9738 7.01066 47.9125 6.456C48.8938 5.73066 49.9818 5.13333 51.1765 4.664C52.3712 4.152 53.7152 3.78933 55.2085 3.576C55.7632 3.49066 56.3178 3.55466 56.8725 3.768C57.4272 3.98133 57.9178 4.28 58.3445 4.664C58.7712 5.048 59.0912 5.51733 59.3045 6.072C59.5178 6.584 59.5605 7.13866 59.4325 7.736C58.7925 9.99733 57.9178 12.344 56.8085 14.776C57.6618 14.6907 58.6858 14.6053 59.8805 14.52C61.1178 14.392 62.4192 14.2853 63.7845 14.2C65.4912 14.1573 67.1552 14.1787 68.7765 14.264C70.4405 14.3493 71.7418 14.5627 72.6805 14.904C74.2592 15.4587 74.9418 16.1413 74.7285 16.952C74.6432 17.2933 74.3445 17.6347 73.8325 17.976C73.3632 18.3173 72.7658 18.4453 72.0405 18.36C69.8645 18.1467 67.6885 18.0827 65.5125 18.168C63.3792 18.2107 61.2885 18.2747 59.2405 18.36C58.3872 18.36 57.6832 18.2533 57.1285 18.04C56.5738 17.8267 56.1045 17.528 55.7205 17.144C55.2938 17.9547 54.8672 18.7653 54.4405 19.576C54.0138 20.3867 53.5658 21.176 53.0965 21.944C52.7125 22.5413 52.2858 22.9893 51.8165 23.288C51.3472 23.5867 50.7925 23.5653 50.1525 23.224C49.2138 22.712 48.9365 21.9227 49.3205 20.856ZM71.5285 42.552C71.9552 42.8933 72.2325 43.3627 72.3605 43.96C72.5312 44.5147 72.6165 45.112 72.6165 45.752C72.5738 46.392 72.4458 47.032 72.2325 47.672C72.0618 48.2693 71.8698 48.76 71.6565 49.144C72.5525 48.6747 73.2992 48.2693 73.8965 47.928C74.4938 47.5867 75.2405 47.1387 76.1365 46.584C76.7338 46.2 77.2885 45.9227 77.8005 45.752C78.3552 45.5813 78.7392 45.7947 78.9525 46.392C79.0805 46.776 78.9738 47.3947 78.6325 48.248C78.3338 49.0587 77.9285 49.72 77.4165 50.232C76.3925 51.128 75.1552 52.0453 73.7045 52.984C72.2112 53.9653 70.7818 54.712 69.4165 55.224C68.8618 55.4373 68.3285 55.4373 67.8165 55.224C67.3045 55.0107 66.8778 54.712 66.5365 54.328C66.1952 53.9867 65.9605 53.6027 65.8325 53.176C65.7472 52.792 65.8112 52.4293 66.0245 52.088C66.5792 51.2773 67.0485 50.4453 67.4325 49.592C67.8592 48.696 68.1792 47.864 68.3925 47.096C68.5205 46.5413 68.4992 46.1147 68.3285 45.816C68.1578 45.4747 67.8805 45.304 67.4965 45.304C66.6432 45.304 65.7258 45.4747 64.7445 45.816C63.8058 46.1147 63.1232 46.392 62.6965 46.648C62.4405 47.7573 62.2485 48.888 62.1205 50.04C61.9925 51.1493 61.8858 52.216 61.8005 53.24C61.7152 54.264 61.2458 54.7333 60.3925 54.648C59.7952 54.6053 59.2405 54.3707 58.7285 53.944C58.2165 53.56 57.9605 53.048 57.9605 52.408C57.9605 50.872 58.0885 49.2293 58.3445 47.48C58.4725 46.6267 58.6432 45.7947 58.8565 44.984C59.1125 44.1733 59.4112 43.448 59.7525 42.808C59.9658 42.4667 60.2218 42.104 60.5205 41.72C60.8618 41.336 61.3952 41.144 62.1205 41.144C62.4618 41.144 62.7605 41.2507 63.0165 41.464C63.3152 41.6347 63.4218 41.8907 63.3365 42.232C67.0912 41.1653 69.8218 41.272 71.5285 42.552ZM57.5765 37.432C56.8512 37.5173 56.1045 37.5173 55.3365 37.432C54.6112 37.3467 54.1418 37.0053 53.9285 36.408C53.7578 35.9387 53.8645 35.448 54.2485 34.936C54.6752 34.424 55.2938 34.0613 56.1045 33.848C56.4458 33.7627 56.8298 33.6773 57.2565 33.592C57.6832 33.464 58.1312 33.336 58.6005 33.208C58.7285 31.416 58.8778 29.624 59.0485 27.832C59.2618 26.04 59.5392 24.248 59.8805 22.456C60.1792 21.048 61.0325 20.344 62.4405 20.344C63.5072 20.344 63.9765 20.92 63.8485 22.072C63.6352 23.3947 63.4218 24.9093 63.2085 26.616C63.0378 28.3227 62.8885 30.136 62.7605 32.056C62.9312 32.0133 63.1018 31.9707 63.2725 31.928C63.4432 31.8853 63.6352 31.8213 63.8485 31.736C65.3418 31.3093 66.7498 30.8827 68.0725 30.456C69.4378 30.0293 70.5472 29.7307 71.4005 29.56C72.5525 29.2613 73.4698 29.2827 74.1525 29.624C74.8352 29.9653 75.1978 30.3493 75.2405 30.776C75.2832 31.6293 74.8352 32.2693 73.8965 32.696C73.0432 33.08 71.8698 33.528 70.3765 34.04C68.9258 34.552 67.3898 35.0427 65.7685 35.512C64.1472 35.9813 62.5898 36.408 61.0965 36.792C59.6032 37.1333 58.4298 37.3467 57.5765 37.432ZM107.113 28.856C107.454 28.7707 108.073 28.6427 108.969 28.472C109.907 28.2587 110.974 28.0667 112.169 27.896C113.363 27.6827 114.579 27.512 115.817 27.384C117.097 27.2133 118.227 27.128 119.209 27.128C120.19 27.128 120.873 27.32 121.257 27.704C121.683 28.0453 121.918 28.3867 121.961 28.728C122.046 29.3253 121.897 29.8373 121.513 30.264C121.129 30.6907 120.51 30.9253 119.657 30.968C118.419 31.0533 117.033 31.2027 115.497 31.416C113.961 31.6293 112.403 31.8853 110.825 32.184C109.246 32.44 107.71 32.7387 106.217 33.08C104.766 33.3787 103.486 33.6773 102.377 33.976C101.779 34.1467 101.246 34.168 100.777 34.04C100.307 33.912 100.009 33.6987 99.8805 33.4C99.5392 32.5893 99.4965 31.8853 99.7525 31.288C100.051 30.6907 100.478 30.1573 101.033 29.688C102.27 28.6213 103.294 27.4907 104.105 26.296C104.958 25.0587 105.683 23.4373 106.281 21.432C105.129 20.8773 104.254 20.1093 103.657 19.128C103.102 18.1467 102.803 17.1013 102.76 15.992C102.675 15.0107 102.867 14.072 103.337 13.176C103.849 12.2373 104.489 11.4267 105.257 10.744C106.067 10.0187 106.963 9.42133 107.945 8.952C108.926 8.44 109.907 8.09866 110.889 7.928C110.931 6.98933 110.953 6.072 110.953 5.176C110.953 4.28 110.953 3.384 110.953 2.488C110.953 1.976 111.038 1.50666 111.208 1.08C111.379 0.653332 111.699 0.418666 112.169 0.375999C112.894 0.290665 113.491 0.546664 113.961 1.144C114.473 1.69866 114.771 2.46666 114.857 3.448C114.942 4.728 115.006 5.944 115.049 7.096C115.134 8.248 115.155 9.37866 115.113 10.488C115.07 11.5547 114.942 12.664 114.729 13.816C114.558 14.9253 114.281 16.12 113.897 17.4C113.513 18.6373 113.001 19.5973 112.361 20.28C111.763 20.9627 111.102 21.432 110.377 21.688C109.95 23.48 109.481 24.9093 108.969 25.976C108.457 27.0427 107.838 28.0027 107.113 28.856ZM119.913 41.912C119.401 42.6373 118.782 43.2773 118.057 43.832C117.331 44.3867 116.542 44.9627 115.689 45.56C116.414 45.5173 117.161 45.56 117.929 45.688C118.697 45.816 119.379 46.072 119.977 46.456C120.233 46.6267 120.425 46.8827 120.553 47.224C120.723 47.5227 120.809 47.864 120.809 48.248C120.851 48.632 120.787 49.0373 120.617 49.464C120.489 49.848 120.254 50.1893 119.913 50.488C118.931 51.3413 117.865 52.152 116.713 52.92C115.561 53.7307 114.43 54.7547 113.321 55.992C114.473 56.0773 115.539 56.0773 116.521 55.992C117.502 55.9067 118.462 55.7787 119.401 55.608C120.382 55.4373 121.385 55.2453 122.409 55.032C123.475 54.8187 124.67 54.584 125.993 54.328C126.249 54.2853 126.611 54.328 127.081 54.456C127.593 54.584 127.891 54.9253 127.977 55.48C128.062 56.0773 127.763 56.6747 127.081 57.272C126.398 57.912 125.502 58.3813 124.393 58.68C122.046 59.2773 119.678 59.7253 117.289 60.024C114.942 60.3653 112.723 60.408 110.633 60.152C110.121 60.024 109.609 59.8533 109.097 59.64C108.585 59.4267 108.158 59.1493 107.817 58.808C107.518 58.4667 107.305 58.0613 107.177 57.592C107.091 57.1653 107.198 56.6747 107.497 56.12C108.009 55.352 108.606 54.6267 109.289 53.944C110.014 53.2613 110.739 52.6213 111.465 52.024C112.233 51.4693 112.979 50.9573 113.705 50.488C114.473 49.976 115.155 49.528 115.753 49.144C114.643 49.144 113.47 49.3147 112.233 49.656C110.995 49.9547 109.758 50.296 108.521 50.68C108.009 50.8507 107.539 50.9147 107.113 50.872C106.729 50.8293 106.387 50.744 106.089 50.616C105.79 50.488 105.555 50.3387 105.385 50.168C105.257 49.9973 105.193 49.8693 105.193 49.784C105.107 49.4 105.15 49.0373 105.321 48.696C105.534 48.312 105.811 47.9707 106.153 47.672C106.494 47.3307 106.878 47.0107 107.305 46.712C107.731 46.4133 108.179 46.136 108.649 45.88C109.075 45.624 109.587 45.3253 110.185 44.984C110.825 44.6427 111.465 44.28 112.105 43.896C112.787 43.4693 113.449 43.0427 114.089 42.616C114.729 42.1893 115.262 41.784 115.689 41.4C116.03 41.1013 116.115 40.8667 115.945 40.696C115.774 40.4827 115.561 40.376 115.305 40.376C113.939 40.2907 112.659 40.4187 111.465 40.76C110.27 41.1013 109.203 41.4427 108.265 41.784C107.881 41.912 107.411 41.912 106.857 41.784C106.302 41.656 105.854 41.464 105.513 41.208C105.171 40.9093 104.979 40.568 104.937 40.184C104.937 39.7573 105.257 39.3307 105.897 38.904C106.579 38.4773 107.369 38.0933 108.265 37.752C109.203 37.368 110.185 37.0907 111.208 36.92C112.233 36.7067 113.278 36.5787 114.345 36.536C115.411 36.4933 116.435 36.5573 117.417 36.728C118.825 36.9413 119.806 37.496 120.361 38.392C120.958 39.288 120.809 40.4613 119.913 41.912ZM100.969 5.944C100.883 7.096 100.819 8.184 100.777 9.208C100.734 10.1893 100.713 11.2133 100.713 12.28C100.713 13.304 100.734 14.392 100.777 15.544C100.862 16.6533 100.969 17.8693 101.097 19.192C101.182 19.7893 101.139 20.28 100.969 20.664C100.798 21.0053 100.499 21.2187 100.073 21.304C99.5605 21.3893 99.0485 21.2827 98.5365 20.984C98.0245 20.6853 97.6405 20.0667 97.3845 19.128C97.0432 17.976 96.8085 16.76 96.6805 15.48C96.5525 14.2 96.4885 12.9413 96.4885 11.704C96.4885 10.4667 96.5312 9.29333 96.6165 8.184C96.7018 7.032 96.8085 5.98666 96.9365 5.048C97.0218 4.19466 97.2352 3.64 97.5765 3.384C97.9178 3.128 98.2592 3 98.6005 3C99.4965 3 100.137 3.32 100.521 3.96C100.905 4.6 101.054 5.26133 100.969 5.944ZM105.897 16.12C105.897 16.6747 106.131 17.1653 106.601 17.592C107.113 18.0187 107.731 18.232 108.457 18.232C108.841 18.232 109.182 18.0613 109.481 17.72C109.822 17.336 110.057 16.76 110.185 15.992C110.27 15.224 110.355 14.4773 110.441 13.752C110.526 12.984 110.611 12.2373 110.697 11.512C110.227 11.6827 109.694 11.9173 109.097 12.216C108.542 12.5147 108.03 12.8773 107.561 13.304C107.091 13.7307 106.686 14.1787 106.345 14.648C106.046 15.1173 105.897 15.608 105.897 16.12ZM147.639 38.008C147.255 38.008 146.892 37.88 146.551 37.624C146.252 37.3253 145.975 36.984 145.719 36.6C145.463 36.1733 145.228 35.7253 145.015 35.256C144.844 34.7867 144.737 34.3387 144.695 33.912C144.225 31.224 144.055 28.5147 144.183 25.784C144.311 23.0533 144.545 20.3653 144.887 17.72C144.972 16.9947 145.164 16.3973 145.463 15.928C145.804 15.416 146.252 15.224 146.807 15.352C147.404 15.5653 147.916 16.0133 148.343 16.696C148.812 17.3787 149.004 18.1467 148.919 19C148.833 20.024 148.748 21.048 148.663 22.072C148.62 23.0533 148.556 24.056 148.471 25.08C148.556 24.9947 148.663 24.9093 148.791 24.824C148.919 24.7387 149.068 24.6533 149.239 24.568C150.476 23.8853 151.905 23.1813 153.527 22.456C155.191 21.688 156.705 21.048 158.071 20.536C158.199 18.232 158.391 16.1627 158.647 14.328C158.689 13.816 158.817 13.2613 159.031 12.664C159.287 12.024 159.628 11.7253 160.055 11.768C160.695 11.8533 161.185 12.0667 161.527 12.408C161.911 12.7493 162.167 13.1333 162.295 13.56C162.465 13.9867 162.551 14.4347 162.551 14.904C162.551 15.3733 162.529 15.7787 162.487 16.12C162.316 17.6133 162.188 19.2773 162.103 21.112C162.06 22.9467 162.017 24.824 161.975 26.744C161.975 28.664 161.975 30.5627 161.975 32.44C162.017 34.2747 162.06 35.9173 162.103 37.368C162.145 38.1787 161.953 38.7333 161.527 39.032C161.143 39.3307 160.844 39.48 160.631 39.48C160.161 39.48 159.777 39.3093 159.479 38.968C159.223 38.6267 159.009 38.2213 158.839 37.752C158.668 37.24 158.54 36.7067 158.455 36.152C158.369 35.5973 158.305 35.128 158.263 34.744C158.049 33.2933 157.9 31.6933 157.815 29.944C157.772 28.1947 157.793 26.424 157.879 24.632C156.897 25.016 155.873 25.4853 154.807 26.04C153.74 26.552 152.673 27.1067 151.607 27.704C151.052 28.0027 150.476 28.216 149.879 28.344C149.324 28.4293 148.833 28.3013 148.407 27.96C148.364 30.7333 148.428 33.656 148.599 36.728C148.641 37.5813 148.321 38.008 147.639 38.008ZM134.455 17.08C134.924 18.0613 135.116 18.9147 135.031 19.64C134.988 20.3653 134.796 21.0267 134.455 21.624C134.113 22.2213 133.665 22.776 133.111 23.288C132.556 23.8 132.044 24.2907 131.575 24.76C132.215 24.8453 132.769 25.016 133.239 25.272C133.751 25.4853 134.156 25.848 134.455 26.36C134.711 26.8293 134.881 27.384 134.967 28.024C135.052 28.664 134.988 29.4107 134.775 30.264C134.561 31.1173 134.22 32.0347 133.751 33.016C133.281 33.9973 132.769 34.9573 132.215 35.896C133.281 35.4267 134.455 34.8933 135.735 34.296C137.015 33.656 138.273 33.0373 139.51 32.44C139.98 32.2267 140.535 32.0347 141.175 31.864C141.857 31.6933 142.241 31.7573 142.327 32.056C142.412 32.184 142.391 32.4187 142.263 32.76C142.135 33.1013 141.964 33.464 141.751 33.848C141.537 34.232 141.281 34.616 140.983 35C140.684 35.3413 140.385 35.5973 140.087 35.768C137.868 37.2613 135.948 38.4133 134.327 39.224C132.705 40.0347 131.297 40.5893 130.103 40.888C129.377 41.1013 128.737 41.016 128.183 40.632C127.671 40.248 127.329 39.864 127.159 39.48C126.945 38.9253 126.881 38.456 126.967 38.072C127.095 37.688 127.223 37.368 127.351 37.112C128.076 35.704 128.78 34.2533 129.463 32.76C130.188 31.2667 130.679 29.944 130.935 28.792C129.996 28.792 129.057 28.856 128.119 28.984C127.649 29.0693 127.244 28.9627 126.903 28.664C126.604 28.3653 126.348 28.0027 126.135 27.576C125.964 27.1493 125.879 26.7227 125.879 26.296C125.879 25.8693 125.985 25.5493 126.199 25.336C126.711 24.8667 127.265 24.3333 127.863 23.736C128.46 23.1387 128.993 22.5627 129.463 22.008C129.975 21.4107 130.359 20.8347 130.615 20.28C130.913 19.7253 130.999 19.256 130.871 18.872C130.743 18.5307 130.231 18.424 129.335 18.552C128.481 18.68 127.649 18.9573 126.839 19.384C126.54 19.5547 126.156 19.5547 125.687 19.384C125.26 19.2133 124.94 18.9787 124.727 18.68C124.556 18.4667 124.471 18.1893 124.471 17.848C124.513 17.5067 124.641 17.2507 124.855 17.08C125.537 16.3973 126.327 15.864 127.223 15.48C128.161 15.0533 129.1 14.84 130.039 14.84C130.935 14.84 131.767 15.032 132.535 15.416C133.345 15.7573 133.985 16.312 134.455 17.08ZM182.578 25.784C182.023 26.4667 181.426 27.1067 180.786 27.704C180.146 28.3013 179.548 28.92 178.994 29.56C178.482 30.2 178.076 30.8827 177.778 31.608C177.479 32.3333 177.415 33.1653 177.586 34.104C177.884 34.7013 178.012 35.1707 177.97 35.512C177.927 35.8107 177.756 36.0667 177.458 36.28C176.69 36.7067 175.922 36.5147 175.154 35.704C174.642 35.1493 174.279 34.488 174.066 33.72C173.895 32.9093 173.852 32.12 173.938 31.352C174.066 30.5413 174.3 29.752 174.642 28.984C175.026 28.216 175.516 27.5333 176.114 26.936C176.711 26.3387 177.33 25.72 177.97 25.08C178.61 24.3973 179.186 23.6933 179.698 22.968C180.21 22.2427 180.594 21.5173 180.85 20.792C181.106 20.024 181.17 19.2347 181.042 18.424C180.999 18.1253 180.828 17.8693 180.53 17.656C180.231 17.4 179.847 17.208 179.378 17.08C178.908 16.9093 178.375 16.824 177.778 16.824C177.223 16.7813 176.647 16.8453 176.05 17.016C175.068 17.3147 174.215 17.848 173.49 18.616C172.764 19.3413 172.38 20.1307 172.338 20.984C172.636 21.6667 172.615 22.136 172.274 22.392C171.975 22.6053 171.655 22.712 171.314 22.712C171.015 22.712 170.738 22.6267 170.482 22.456C169.458 21.432 169.01 20.3227 169.138 19.128C169.308 17.9333 169.778 16.8453 170.546 15.864C171.271 14.8827 172.188 14.1147 173.298 13.56C174.45 12.9627 175.687 12.6213 177.01 12.536C178.674 12.408 180.231 12.7067 181.682 13.432C183.175 14.1147 184.199 15.288 184.753 16.952C185.308 18.8293 185.308 20.4933 184.753 21.944C184.199 23.3947 183.474 24.6747 182.578 25.784ZM180.338 45.624C180.466 46.2213 180.38 46.7547 180.082 47.224C179.783 47.6933 179.378 48.056 178.866 48.312C178.396 48.568 177.884 48.6747 177.33 48.632C176.818 48.5893 176.37 48.3333 175.986 47.864C175.73 47.5653 175.58 47.224 175.538 46.84C175.495 46.456 175.495 46.0507 175.538 45.624C175.623 45.1973 175.708 44.792 175.794 44.408C175.922 44.024 175.986 43.6827 175.986 43.384C175.986 43.256 176.028 43.1067 176.114 42.936C176.199 42.7653 176.306 42.6373 176.434 42.552C176.604 42.424 176.775 42.36 176.946 42.36C177.116 42.36 177.308 42.488 177.522 42.744C178.119 43.2133 178.738 43.704 179.378 44.216C180.018 44.6853 180.338 45.1547 180.338 45.624ZM201.049 9.464C200.665 11.3413 200.259 13.1973 199.833 15.032C199.449 16.8667 199.086 18.7013 198.745 20.536C198.403 22.3707 198.147 24.2053 197.977 26.04C197.806 27.8747 197.785 29.7093 197.913 31.544C197.998 32.0133 197.913 32.4613 197.657 32.888C197.443 33.3147 197.187 33.592 196.889 33.72C195.95 34.0613 195.267 33.8267 194.841 33.016C194.329 30.84 194.051 28.6853 194.009 26.552C194.009 24.4187 194.158 22.3067 194.457 20.216C194.798 18.1253 195.225 16.056 195.737 14.008C196.291 11.9173 196.846 9.848 197.401 7.8C197.614 6.94666 197.955 6.47733 198.425 6.392C198.894 6.30666 199.342 6.34933 199.769 6.52C200.409 6.73333 200.814 7.16 200.985 7.8C201.155 8.44 201.177 8.99466 201.049 9.464ZM198.489 43.896C198.489 44.3653 198.425 45.0053 198.297 45.816C198.211 46.584 198.041 47.3093 197.785 47.992C197.571 48.6747 197.251 49.2293 196.825 49.656C196.441 50.0827 195.95 50.168 195.353 49.912C195.011 49.6987 194.67 49.2933 194.329 48.696C193.987 48.0987 193.838 47.544 193.881 47.032C193.966 46.008 194.179 45.0053 194.521 44.024C194.862 43.0427 195.31 42.4453 195.865 42.232C196.121 42.1467 196.398 42.1467 196.697 42.232C197.038 42.3173 197.337 42.4667 197.593 42.68C197.849 42.8507 198.062 43.064 198.233 43.32C198.403 43.5333 198.489 43.7253 198.489 43.896Z" fill="black"/>
</svg>
